<svg width="680" height="150" viewBox="0 0 680 150" xmlns="http://www.w3.org/2000/svg" role="img">
  <title>DevPulse</title>
  <defs>
    <linearGradient id="g1" x1="0" y1="0" x2="1" y2="1">
      <stop offset="0%" stop-color="#00f0ff"/>
      <stop offset="50%" stop-color="#0ea5e9"/>
      <stop offset="100%" stop-color="#3b5bdb"/>
    </linearGradient>
    <linearGradient id="g2" x1="0" y1="0" x2="0" y2="1">
      <stop offset="0%" stop-color="#00f0ff" stop-opacity="0.2"/>
      <stop offset="100%" stop-color="#0ea5e9" stop-opacity="0"/>
    </linearGradient>
  </defs>
  <rect width="680" height="150" fill="#080a10" rx="14"/>
  <ellipse cx="340" cy="75" rx="260" ry="50" fill="url(#g2)" opacity="0.45"/>
  <g fill="url(#g1)">
    <path transform="matrix(0.0488 0 0 -0.0488 122.88 118.00)" d="M734 1409Q1067 1409 1244.0 1254.0Q1421 1099 1421 807Q1421 571 1322.0 390.0Q1223 209 1035.0 104.5Q847 0 614 0H36L310 1409ZM375 228H605Q765 228 888.5 296.5Q1012 365 1078.5 494.0Q1145 623 1145 794Q1145 983 1039.5 1082.0Q934 1181 736 1181H560Z"/>
    <path transform="matrix(0.0488 0 0 -0.0488 193.09 118.00)" d="M358 476Q351 438 351 387Q351 281 397.5 224.5Q444 168 535 168Q682 168 748 337L993 263Q918 104 807.0 42.0Q696 -20 516 -20Q303 -20 183.0 95.5Q63 211 63 418Q63 625 135.0 780.5Q207 936 339.5 1019.0Q472 1102 646 1102Q855 1102 968.5 994.5Q1082 887 1082 691Q1082 592 1058 476ZM822 663 825 719Q825 826 775.5 875.0Q726 924 646 924Q550 924 484.5 857.5Q419 791 391 663Z"/>
    <path transform="matrix(0.0488 0 0 -0.0488 246.71 118.00)" d="M622 0H286L110 1082H399L470 477Q474 447 483.0 339.0Q492 231 492 208Q553 351 614 474L930 1082H1232Z"/>
    <path transform="matrix(0.0488 0 0 -0.0488 300.33 118.00)" d="M850 1409Q1096 1409 1232.5 1297.0Q1369 1185 1369 987Q1369 762 1215.5 629.0Q1062 496 805 496H428L330 0H36L309 1409ZM471 723H760Q915 723 992.5 781.0Q1070 839 1070 971Q1070 1073 1006.0 1126.5Q942 1180 822 1180H560Z"/>
    <path transform="matrix(0.0488 0 0 -0.0488 365.02 118.00)" d="M512 1082 394 487Q368 364 368 322Q368 193 520 193Q621 193 706.5 274.0Q792 355 815 476L933 1082H1215L1049 231Q1033 152 1011 0H743Q743 9 752.5 84.0Q762 159 767 185H764Q688 78 597.5 29.5Q507 -19 391 -19Q239 -19 162.0 54.0Q85 127 85 265Q85 290 92.0 345.5Q99 401 106 429L233 1082Z"/>
    <path transform="matrix(0.0488 0 0 -0.0488 424.11 118.00)" d="M35 0 323 1484H604L315 0Z"/>
    <path transform="matrix(0.0488 0 0 -0.0488 449.89 118.00)" d="M1000 334Q1000 160 871.5 70.0Q743 -20 497 -20Q296 -20 180.0 51.0Q64 122 23 271L274 307Q295 232 351.0 199.0Q407 166 517 166Q626 166 682.5 201.0Q739 236 739 302Q739 354 697.5 381.5Q656 409 515 439Q316 484 234.5 563.5Q153 643 153 769Q153 929 278.5 1014.0Q404 1099 637 1099Q843 1099 944.0 1028.5Q1045 958 1069 811L818 782Q801 851 752.0 882.0Q703 913 618 913Q413 913 413 793Q413 760 433.0 738.0Q453 716 490.0 700.0Q527 684 668 651Q850 610 925.0 534.0Q1000 458 1000 334Z"/>
    <path transform="matrix(0.0488 0 0 -0.0488 503.51 118.00)" d="M358 476Q351 438 351 387Q351 281 397.5 224.5Q444 168 535 168Q682 168 748 337L993 263Q918 104 807.0 42.0Q696 -20 516 -20Q303 -20 183.0 95.5Q63 211 63 418Q63 625 135.0 780.5Q207 936 339.5 1019.0Q472 1102 646 1102Q855 1102 968.5 994.5Q1082 887 1082 691Q1082 592 1058 476ZM822 663 825 719Q825 826 775.5 875.0Q726 924 646 924Q550 924 484.5 857.5Q419 791 391 663Z"/>
  </g>
</svg>